<svg xmlns="http://www.w3.org/2000/svg" xmlns:svg="http://www.w3.org/2000/svg" id="svg4375" width="32" height="32" version="1.1"><metadata id="metadata4380"/><g id="layer1" transform="translate(580.71429,-1.576468)"><path id="path3763" fill="#000" fill-opacity="1" stroke="none" d="m -569.93304,8.568049 c -3.02268,0.0082 -3.08318,-0.07881 -6,0.01133 -1.72799,0.345314 -3,1.650906 -3,3.109869 l 0,12.484779 c 0,1.729142 1.784,3.121195 4,3.121195 l 20,0 c 2.216,0 4,-1.392053 4,-3.121195 l 0,-12.484779 c 0,-1.458963 -1.27201,-2.764555 -3,-3.109869 -2.90073,0.02143 -2.88431,0.03261 -6,-0.01133 z m -5.96875,3.706419 22.28125,-0.463302 c 0,0 -0.21849,-0.116381 -0.2188,-0.07315 l -0.0937,13.143156 c -3.1e-4,0.04323 -0.0384,0.07315 -0.0937,0.07315 l -21.8125,0 c -0.0554,0 -0.0937,-0.02993 -0.0937,-0.07315 l 0,-12.557932 c 0,-0.04323 -1.1123,-0.02499 0.0312,-0.04877 z"/><path id="path4088" fill="#fff" stroke="none" d="m -575.93304,9.411527 c -1.72799,0.348732 -3,1.649835 -3,3.12324 l 0,12.608361 c 0,1.746258 1.784,3.15209 4,3.15209 l 20,0 c 2.216,0 4,-1.405832 4,-3.15209 l 0,-12.608361 c 0,-1.473405 -1.27201,-2.826747 -3,-3.175479 0.0457,0.0074 -22,0.05224 -22,0.05224 z m -0.0134,3.190081 21.95089,-0.13368 -0.0272,0.0211 0.0893,13.36824 c 2.9e-4,0.04366 -0.0384,0.07388 -0.0937,0.07388 l -21.8125,0 c -0.0554,0 -0.0938,-0.03022 -0.0937,-0.07388 l 0.0312,-13.216967 c 0,-0.0085 -0.0447,-0.0387 -0.0447,-0.0387 z"/><path id="path3019-1" fill="none" stroke="#000" stroke-dasharray="none" stroke-linecap="round" stroke-linejoin="round" stroke-miterlimit="4" stroke-opacity="1" stroke-width="2.878" d="m -573.58788,14.234131 8.42096,7.653424 8.88872,-7.559041"/><path id="path3019-1-2" fill="none" stroke="#fff" stroke-dasharray="none" stroke-linecap="round" stroke-linejoin="round" stroke-miterlimit="4" stroke-opacity="1" stroke-width="2.878" d="m -573.58788,15.124756 8.42096,7.622174 8.88872,-7.527791"/></g></svg>